<svg width="811" height="811" viewBox="0 0 811 811" fill="none" xmlns="http://www.w3.org/2000/svg">
<rect width="811" height="811" fill="white"/>
<path fill-rule="evenodd" clip-rule="evenodd" d="M177.805 413.404L97.2336 546.082C77.0584 579.304 87.6353 622.592 120.858 642.767C154.08 662.942 197.368 652.365 217.543 619.143L342.483 413.404H177.805ZM392.536 413.404L517.476 619.143C537.651 652.365 580.939 662.942 614.161 642.767C647.384 622.592 657.961 579.304 637.785 546.082L557.214 413.404H392.536Z" fill="#3D3D3D"/>
<mask id="mask0_2_149" style="mask-type:alpha" maskUnits="userSpaceOnUse" x="86" y="174" width="563" height="479">
<path d="M302.032 208.839C322.207 175.616 365.495 165.039 398.717 185.214C431.94 205.39 442.517 248.677 422.342 281.9L217.543 619.142C197.368 652.365 154.08 662.942 120.858 642.767C87.6352 622.591 77.0582 579.304 97.2334 546.081L302.032 208.839Z" fill="#D9D9D9"/>
<path d="M432.986 208.839C412.811 175.616 369.524 165.039 336.301 185.214C303.079 205.39 292.502 248.677 312.677 281.9L517.476 619.142C537.651 652.365 580.939 662.942 614.161 642.767C647.384 622.591 657.961 579.304 637.785 546.081L432.986 208.839Z" fill="#D9D9D9"/>
</mask>
<g mask="url(#mask0_2_149)">
</g>
<path d="M440.326 218.069C440.326 252.972 406.887 281.266 365.639 281.266C324.39 281.266 290.952 252.972 290.952 218.069C290.952 183.167 324.39 154.873 365.639 154.873C406.887 154.873 440.326 183.167 440.326 218.069Z" fill="#3D3D3D"/>
<path d="M366.438 367.443L434.581 242.486H296.697L366.438 367.443Z" fill="#3D3D3D"/>
<path fill-rule="evenodd" clip-rule="evenodd" d="M367.509 652.803C341.946 654.721 316.25 642.555 302.032 619.142L177.727 414.448L260.558 279.671L367.509 455.789L474.745 279.204L557.682 413.806L432.986 619.142C418.768 642.555 393.072 654.721 367.509 652.803Z" fill="#E76D3C"/>
<path fill-rule="evenodd" clip-rule="evenodd" d="M657.957 651.736C695.141 649.849 724.711 619.102 724.711 581.449V222.378C724.711 183.509 693.201 152 654.333 152C615.464 152 583.955 183.509 583.955 222.378V377.032L680.186 538.361C694.273 563.718 694.544 625.001 657.957 651.736Z" fill="#3D3D3D"/>
</svg>
