<svg width="638" height="501" viewBox="0 0 638 501" fill="none" xmlns="http://www.w3.org/2000/svg">
<path fill-rule="evenodd" clip-rule="evenodd" d="M90.8053 261.404L10.2336 394.082C-9.94164 427.304 0.635311 470.592 33.8578 490.767C67.0804 510.942 110.368 500.365 130.543 467.143L255.483 261.404H90.8053ZM305.536 261.404L430.476 467.143C450.651 500.365 493.939 510.942 527.161 490.767C560.384 470.592 570.961 427.304 550.785 394.082L470.214 261.404H305.536Z" fill="#3D3D3D"/>
<mask id="mask0_2_151" style="mask-type:alpha" maskUnits="userSpaceOnUse" x="-1" y="22" width="563" height="480">
<path d="M215.032 56.8389C235.207 23.6163 278.495 13.0393 311.717 33.2145C344.94 53.3897 355.517 96.6771 335.342 129.9L130.543 467.142C110.368 500.365 67.0803 510.942 33.8577 490.767C0.635189 470.591 -9.94176 427.304 10.2334 394.081L215.032 56.8389Z" fill="#D9D9D9"/>
<path d="M345.986 56.8389C325.811 23.6163 282.524 13.0393 249.301 33.2145C216.079 53.3897 205.502 96.6771 225.677 129.9L430.476 467.142C450.651 500.365 493.939 510.942 527.161 490.767C560.384 470.591 570.961 427.304 550.785 394.081L345.986 56.8389Z" fill="#D9D9D9"/>
</mask>
<g mask="url(#mask0_2_151)">
</g>
<path d="M353.326 66.0692C353.326 100.972 319.887 129.266 278.639 129.266C237.39 129.266 203.952 100.972 203.952 66.0692C203.952 31.1667 237.39 2.87268 278.639 2.87268C319.887 2.87268 353.326 31.1667 353.326 66.0692Z" fill="#3D3D3D"/>
<path d="M279.438 215.443L347.581 90.4861H209.697L279.438 215.443Z" fill="#3D3D3D"/>
<path fill-rule="evenodd" clip-rule="evenodd" d="M280.509 500.803C254.946 502.721 229.25 490.555 215.032 467.142L90.7265 262.448L173.558 127.671L280.509 303.789L387.745 127.204L470.682 261.806L345.986 467.142C331.768 490.555 306.072 502.721 280.509 500.803Z" fill="#E76D3C"/>
<path fill-rule="evenodd" clip-rule="evenodd" d="M570.957 499.736C608.141 497.849 637.711 467.102 637.711 429.449V70.3781C637.711 31.5094 606.201 0 567.333 0C528.464 0 496.955 31.5093 496.955 70.378V225.032L593.186 386.361C607.273 411.718 607.544 473.001 570.957 499.736Z" fill="#3D3D3D"/>
</svg>
