<svg width="985" height="223" viewBox="0 0 985 223" fill="none" xmlns="http://www.w3.org/2000/svg">
<path d="M152.783 194.092L142.529 167.139H55.2246L44.9707 194.678C40.9668 205.42 37.5488 212.695 34.7168 216.504C31.8848 220.215 27.2461 222.07 20.8008 222.07C15.332 222.07 10.498 220.068 6.29883 216.064C2.09961 212.061 0 207.52 0 202.441C0 199.512 0.488281 196.484 1.46484 193.359C2.44141 190.234 4.05273 185.889 6.29883 180.322L61.2305 40.8691C62.793 36.8652 64.6484 32.0801 66.7969 26.5137C69.043 20.8496 71.3867 16.1621 73.8281 12.4512C76.3672 8.74023 79.6387 5.76172 83.6426 3.51562C87.7441 1.17188 92.7734 0 98.7305 0C104.785 0 109.814 1.17188 113.818 3.51562C117.92 5.76172 121.191 8.69141 123.633 12.3047C126.172 15.918 128.271 19.8242 129.932 24.0234C131.689 28.125 133.887 33.6426 136.523 40.5762L192.627 179.15C197.021 189.697 199.219 197.363 199.219 202.148C199.219 207.129 197.119 211.719 192.92 215.918C188.818 220.02 183.838 222.07 177.979 222.07C174.561 222.07 171.631 221.436 169.189 220.166C166.748 218.994 164.697 217.383 163.037 215.332C161.377 213.184 159.57 209.961 157.617 205.664C155.762 201.27 154.15 197.412 152.783 194.092ZM66.6504 134.473H130.811L98.4375 45.8496L66.6504 134.473Z" fill="white"/>
<path d="M268.506 82.1777V197.754C268.506 205.762 266.602 211.816 262.793 215.918C258.984 220.02 254.15 222.07 248.291 222.07C242.432 222.07 237.646 219.971 233.936 215.771C230.322 211.572 228.516 205.566 228.516 197.754V83.3496C228.516 75.4395 230.322 69.4824 233.936 65.4785C237.646 61.4746 242.432 59.4727 248.291 59.4727C254.15 59.4727 258.984 61.4746 262.793 65.4785C266.602 69.4824 268.506 75.0488 268.506 82.1777ZM248.73 40.8691C243.164 40.8691 238.379 39.1602 234.375 35.7422C230.469 32.3242 228.516 27.4902 228.516 21.2402C228.516 15.5762 230.518 10.9375 234.521 7.32422C238.623 3.61328 243.359 1.75781 248.73 1.75781C253.906 1.75781 258.496 3.41797 262.5 6.73828C266.504 10.0586 268.506 14.8926 268.506 21.2402C268.506 27.3926 266.553 32.2266 262.646 35.7422C258.74 39.1602 254.102 40.8691 248.73 40.8691Z" fill="white"/>
<path d="M344.531 28.5645L393.164 172.559L441.943 27.5391C444.482 19.9219 446.387 14.6484 447.656 11.7188C448.926 8.69141 451.025 6.00586 453.955 3.66211C456.885 1.2207 460.889 0 465.967 0C469.678 0 473.096 0.927734 476.221 2.7832C479.443 4.63867 481.934 7.12891 483.691 10.2539C485.547 13.2812 486.475 16.3574 486.475 19.4824C486.475 21.6309 486.182 23.9746 485.596 26.5137C485.01 28.9551 484.277 31.3965 483.398 33.8379C482.52 36.1816 481.641 38.623 480.762 41.1621L428.76 181.494C426.904 186.865 425.049 191.992 423.193 196.875C421.338 201.66 419.189 205.908 416.748 209.619C414.307 213.232 411.035 216.211 406.934 218.555C402.93 220.898 397.998 222.07 392.139 222.07C386.279 222.07 381.299 220.898 377.197 218.555C373.193 216.309 369.922 213.33 367.383 209.619C364.941 205.811 362.793 201.514 360.938 196.729C359.082 191.943 357.227 186.865 355.371 181.494L304.248 42.334C303.369 39.7949 302.441 37.3047 301.465 34.8633C300.586 32.4219 299.805 29.7852 299.121 26.9531C298.535 24.1211 298.242 21.7285 298.242 19.7754C298.242 14.7949 300.244 10.2539 304.248 6.15234C308.252 2.05078 313.281 0 319.336 0C326.758 0 331.982 2.29492 335.01 6.88477C338.135 11.377 341.309 18.6035 344.531 28.5645Z" fill="#E56F3A"/>
<path d="M552.393 82.1777V197.754C552.393 205.762 550.488 211.816 546.68 215.918C542.871 220.02 538.037 222.07 532.178 222.07C526.318 222.07 521.533 219.971 517.822 215.771C514.209 211.572 512.402 205.566 512.402 197.754V83.3496C512.402 75.4395 514.209 69.4824 517.822 65.4785C521.533 61.4746 526.318 59.4727 532.178 59.4727C538.037 59.4727 542.871 61.4746 546.68 65.4785C550.488 69.4824 552.393 75.0488 552.393 82.1777ZM532.617 40.8691C527.051 40.8691 522.266 39.1602 518.262 35.7422C514.355 32.3242 512.402 27.4902 512.402 21.2402C512.402 15.5762 514.404 10.9375 518.408 7.32422C522.51 3.61328 527.246 1.75781 532.617 1.75781C537.793 1.75781 542.383 3.41797 546.387 6.73828C550.391 10.0586 552.393 14.8926 552.393 21.2402C552.393 27.3926 550.439 32.2266 546.533 35.7422C542.627 39.1602 537.988 40.8691 532.617 40.8691Z" fill="white"/>
<path d="M630.176 81.5918V86.4258C637.207 77.1484 644.873 70.3613 653.174 66.0645C661.572 61.6699 671.191 59.4727 682.031 59.4727C692.578 59.4727 702.002 61.7676 710.303 66.3574C718.604 70.9473 724.805 77.4414 728.906 85.8398C731.543 90.7227 733.252 95.9961 734.033 101.66C734.814 107.324 735.205 114.551 735.205 123.34V197.754C735.205 205.762 733.35 211.816 729.639 215.918C726.025 220.02 721.289 222.07 715.43 222.07C709.473 222.07 704.639 219.971 700.928 215.771C697.217 211.572 695.361 205.566 695.361 197.754V131.104C695.361 117.92 693.506 107.861 689.795 100.928C686.182 93.8965 678.906 90.3809 667.969 90.3809C660.84 90.3809 654.346 92.5293 648.486 96.8262C642.627 101.025 638.33 106.836 635.596 114.258C633.643 120.215 632.666 131.348 632.666 147.656V197.754C632.666 205.859 630.762 211.963 626.953 216.064C623.242 220.068 618.408 222.07 612.451 222.07C606.689 222.07 601.953 219.971 598.242 215.771C594.531 211.572 592.676 205.566 592.676 197.754V82.1777C592.676 74.5605 594.336 68.8965 597.656 65.1855C600.977 61.377 605.518 59.4727 611.279 59.4727C614.795 59.4727 617.969 60.3027 620.801 61.9629C623.633 63.623 625.879 66.1133 627.539 69.4336C629.297 72.7539 630.176 76.8066 630.176 81.5918Z" fill="white"/>
<path d="M815.186 82.1777V197.754C815.186 205.762 813.281 211.816 809.473 215.918C805.664 220.02 800.83 222.07 794.971 222.07C789.111 222.07 784.326 219.971 780.615 215.771C777.002 211.572 775.195 205.566 775.195 197.754V83.3496C775.195 75.4395 777.002 69.4824 780.615 65.4785C784.326 61.4746 789.111 59.4727 794.971 59.4727C800.83 59.4727 805.664 61.4746 809.473 65.4785C813.281 69.4824 815.186 75.0488 815.186 82.1777ZM795.41 40.8691C789.844 40.8691 785.059 39.1602 781.055 35.7422C777.148 32.3242 775.195 27.4902 775.195 21.2402C775.195 15.5762 777.197 10.9375 781.201 7.32422C785.303 3.61328 790.039 1.75781 795.41 1.75781C800.586 1.75781 805.176 3.41797 809.18 6.73828C813.184 10.0586 815.186 14.8926 815.186 21.2402C815.186 27.3926 813.232 32.2266 809.326 35.7422C805.42 39.1602 800.781 40.8691 795.41 40.8691Z" fill="white"/>
<path d="M943.359 205.518L914.355 162.891L884.619 205.518C880.322 211.475 876.66 215.723 873.633 218.262C870.703 220.801 866.943 222.07 862.354 222.07C857.275 222.07 852.93 220.508 849.316 217.383C845.801 214.16 844.043 210.498 844.043 206.396C844.043 202.197 846.777 196.191 852.246 188.379L888.428 136.523L856.348 93.3105C850.781 86.1816 847.998 79.9805 847.998 74.707C847.998 70.6055 849.658 67.041 852.979 64.0137C856.299 60.9863 860.645 59.4727 866.016 59.4727C870.703 59.4727 874.561 60.791 877.588 63.4277C880.713 66.0645 884.326 70.2148 888.428 75.8789L914.355 111.328L939.551 75.8789C943.75 70.0195 947.363 65.8203 950.391 63.2812C953.516 60.7422 957.373 59.4727 961.963 59.4727C967.236 59.4727 971.582 60.9863 975 64.0137C978.516 66.9434 980.273 70.5078 980.273 74.707C980.273 77.7344 979.541 80.6641 978.076 83.4961C976.709 86.2305 974.561 89.502 971.631 93.3105L939.551 136.523L975.732 188.379C981.396 196.484 984.229 202.588 984.229 206.689C984.229 210.889 982.471 214.502 978.955 217.529C975.439 220.557 971.094 222.07 965.918 222.07C961.328 222.07 957.422 220.752 954.199 218.115C951.074 215.479 947.461 211.279 943.359 205.518Z" fill="white"/>
</svg>
